<svg width="100" height="22" viewBox="0 0 100 22" fill="none" xmlns="http://www.w3.org/2000/svg">
<path d="M10.8579 11.6835H4.87972C4.21783 13.1929 3.88688 14.2395 3.88688 14.8233C3.88688 15.2505 4.04179 15.521 4.35161 15.635C4.67552 15.7489 5.15434 15.8058 5.78807 15.8058V16.6602H0V15.8058C0.337989 15.7631 0.626689 15.7061 0.866098 15.635C1.11959 15.5638 1.33788 15.4641 1.52095 15.3359C1.71811 15.2078 1.88711 15.044 2.02794 14.8447C2.16877 14.6311 2.30255 14.3748 2.4293 14.0757L7.985 0H9.5482L14.5969 12.4738C14.8927 13.2 15.1391 13.7696 15.3363 14.1825C15.5475 14.5955 15.7658 14.9159 15.9911 15.1437C16.2305 15.3573 16.4981 15.5068 16.7939 15.5922C17.1037 15.6777 17.498 15.7417 17.9768 15.7845V16.6602H9.99181V15.7845C10.6678 15.756 11.1537 15.6848 11.4494 15.5709C11.7451 15.457 11.893 15.2291 11.893 14.8874C11.893 14.688 11.8437 14.4317 11.7451 14.1184C11.6466 13.8052 11.5128 13.4207 11.3438 12.965L10.8579 11.6835ZM5.36558 10.4019H10.3932L7.96388 3.9301H7.87938L5.36558 10.4019Z" fill="black"/>
<path d="M21.9607 6.72816H22.0452C22.9747 5.66019 24.1858 5.12621 25.6786 5.12621C26.4954 5.12621 27.2418 5.27573 27.9178 5.57476C28.6079 5.85955 29.1993 6.26537 29.6922 6.79223C30.1992 7.30485 30.5865 7.92427 30.8541 8.65049C31.1357 9.36246 31.2766 10.1456 31.2766 11C31.2766 11.8544 31.1357 12.6375 30.8541 13.3495C30.5865 14.0615 30.2063 14.6809 29.7134 15.2078C29.2205 15.7346 28.629 16.1476 27.9389 16.4466C27.2629 16.7314 26.5236 16.8738 25.7209 16.8738C24.3548 16.8738 23.3127 16.4039 22.5945 15.4641H22.51V18.433C22.51 19.0026 22.5381 19.4583 22.5945 19.8C22.6508 20.1417 22.7705 20.4052 22.9536 20.5903C23.1367 20.7754 23.3902 20.9036 23.7141 20.9748C24.052 21.046 24.4957 21.0887 25.0449 21.1029V22H17.757V21.1029C18.1372 21.0887 18.4471 21.046 18.6865 20.9748C18.9259 20.9036 19.1089 20.7754 19.2357 20.5903C19.3765 20.4052 19.4681 20.1489 19.5103 19.8214C19.5666 19.5081 19.5948 19.0951 19.5948 18.5825V10.6369C19.5948 9.98188 19.5807 9.36246 19.5526 8.77864C19.5244 8.18058 19.4892 7.76052 19.4469 7.51845C19.3765 7.19094 19.2146 6.96311 18.9611 6.83495C18.7217 6.7068 18.3062 6.64272 17.7147 6.64272V5.80971L21.9607 5.21165V6.72816ZM25.5519 6.34369C25.1012 6.34369 24.6717 6.44337 24.2633 6.64272C23.8549 6.84207 23.531 7.1055 23.2916 7.43301C23.0522 7.76052 22.8691 8.17346 22.7423 8.67185C22.6156 9.15599 22.5522 9.68285 22.5522 10.2524V11.7049C22.5522 12.7159 22.7987 13.5773 23.2916 14.2893C23.8267 15.0725 24.5802 15.4641 25.5519 15.4641C26.4109 15.4641 27.0447 15.1081 27.4531 14.3961C27.8756 13.6699 28.0868 12.5521 28.0868 11.0427C28.0868 7.91003 27.2418 6.34369 25.5519 6.34369Z" fill="black"/>
<path d="M43.4921 14.6738C42.2105 16.1405 40.6121 16.8738 38.6968 16.8738C37.8237 16.8738 37.028 16.7385 36.3098 16.468C35.6056 16.1832 35.0001 15.7916 34.4931 15.2932C33.9861 14.7806 33.5918 14.1754 33.3101 13.4777C33.0285 12.7799 32.8876 12.0039 32.8876 11.1495C32.8876 10.2667 33.0355 9.46214 33.3312 8.73592C33.627 7.99547 34.0424 7.36181 34.5776 6.83495C35.1268 6.29385 35.7676 5.87379 36.4999 5.57476C37.2463 5.27573 38.0631 5.12621 38.9503 5.12621C40.4431 5.12621 41.6049 5.53204 42.4358 6.34369C43.2667 7.15534 43.6822 8.2945 43.6822 9.76117C43.6822 9.989 43.647 10.1314 43.5765 10.1884C43.5061 10.2311 43.309 10.2524 42.9851 10.2524H36.183C36.1267 10.3806 36.0985 10.6155 36.0985 10.9573C36.0985 12.3528 36.3943 13.4563 36.9858 14.268C37.5913 15.0796 38.4081 15.4854 39.4362 15.4854C40.0277 15.4854 40.6121 15.3502 41.1895 15.0796C41.781 14.8091 42.3513 14.4246 42.9006 13.9262L43.4921 14.6738ZM39.3939 9.05631C39.9572 9.05631 40.3164 9.02783 40.4713 8.97087C40.6403 8.89968 40.7248 8.74304 40.7248 8.50097C40.7248 7.87443 40.5487 7.36181 40.1967 6.96311C39.8446 6.5644 39.401 6.36505 38.8658 6.36505C38.2603 6.36505 37.7181 6.62136 37.2392 7.13398C36.7745 7.63236 36.4717 8.27314 36.3309 9.05631H39.3939Z" fill="black"/>
<path d="M49.8919 13.3495C49.8919 13.9049 49.913 14.3463 49.9553 14.6738C50.0116 14.9871 50.1172 15.2291 50.2721 15.4C50.4271 15.5709 50.6524 15.6848 50.9481 15.7417C51.2439 15.7845 51.6382 15.8058 52.1311 15.8058V16.6602H45.0756V15.8058C45.498 15.7773 45.836 15.7346 46.0895 15.6777C46.343 15.6207 46.5331 15.5068 46.6599 15.3359C46.7866 15.165 46.8641 14.923 46.8922 14.6097C46.9345 14.2822 46.9556 13.8479 46.9556 13.3068V10.701C46.9556 9.81812 46.9345 9.11327 46.8922 8.58641C46.85 8.05955 46.7585 7.65372 46.6176 7.36893C46.4768 7.08414 46.2726 6.89903 46.005 6.81359C45.7515 6.71392 45.4135 6.66408 44.9911 6.66408V5.9165L49.2159 5.12621L49.5539 7.58252H49.6384C50.0186 6.82783 50.5186 6.22977 51.1382 5.78835C51.7579 5.34693 52.4127 5.12621 53.1028 5.12621C53.638 5.12621 54.0745 5.26149 54.4125 5.53204C54.7505 5.80259 54.9195 6.14434 54.9195 6.55728C54.9195 7.01295 54.7857 7.39741 54.5181 7.71068C54.2646 8.02395 53.9126 8.18058 53.4619 8.18058C53.2507 8.18058 53.0606 8.13786 52.8916 8.05243C52.7226 7.96699 52.5676 7.87443 52.4268 7.77476C52.3001 7.66084 52.1663 7.56117 52.0255 7.47573C51.8987 7.37605 51.7649 7.32621 51.6241 7.32621C51.3565 7.32621 51.103 7.50421 50.8636 7.86019C50.6242 8.21618 50.4271 8.6932 50.2721 9.29126C50.1595 9.71845 50.0679 10.2026 49.9975 10.7437C49.9271 11.2706 49.8919 11.7974 49.8919 12.3243V13.3495Z" fill="black"/>
<path d="M55.4908 6.51456V5.5534C56.3358 5.31133 57.04 4.94822 57.6033 4.46408C58.1807 3.9657 58.6102 3.39612 58.8919 2.75534H59.9692V5.33981H62.3985V6.51456H59.9692V13.0718C59.9692 13.9547 60.0607 14.5812 60.2438 14.9515C60.441 15.3217 60.7649 15.5068 61.2155 15.5068C61.7648 15.5068 62.1802 15.2505 62.4619 14.7379L62.9055 15.3573C62.5112 16.3683 61.5817 16.8738 60.1171 16.8738C59.1454 16.8738 58.3849 16.646 57.8356 16.1903C57.3005 15.7346 57.0329 15.0939 57.0329 14.268V6.51456H55.4908Z" fill="black"/>
<path d="M72.8516 8.84272C72.8516 8.27314 72.8375 7.82459 72.8093 7.49709C72.7812 7.15534 72.7037 6.89903 72.577 6.72816C72.4502 6.54304 72.2601 6.42201 72.0066 6.36505C71.7672 6.29385 71.4362 6.23689 71.0138 6.19418V5.33981H75.7879V11.8117C75.7879 12.6803 75.7949 13.3638 75.809 13.8621C75.8372 14.3463 75.8794 14.7094 75.9357 14.9515C75.978 15.1366 76.0273 15.2861 76.0836 15.4C76.1399 15.4997 76.2315 15.5851 76.3582 15.6563C76.485 15.7133 76.654 15.756 76.8652 15.7845C77.0905 15.7987 77.3792 15.8058 77.7313 15.8058V16.6388L73.5276 16.8951L73.2952 14.9942H73.2107C72.8445 15.5922 72.3305 16.055 71.6686 16.3825C71.0067 16.71 70.2674 16.8738 69.4506 16.8738C67.9437 16.8738 66.7959 16.3327 66.0073 15.2505C65.4017 14.4246 65.0989 13.2498 65.0989 11.7262V8.84272C65.0989 8.2589 65.0849 7.80324 65.0567 7.47573C65.0285 7.13398 64.9511 6.87767 64.8243 6.7068C64.7117 6.53592 64.5356 6.42201 64.2962 6.36505C64.0568 6.29385 63.7259 6.23689 63.3034 6.19418V5.33981H68.0352V11.3845C68.0352 12.8227 68.2113 13.8693 68.5633 14.5243C68.9154 15.165 69.4787 15.4854 70.2533 15.4854C71.0842 15.4854 71.725 15.101 72.1756 14.332C72.6263 13.5916 72.8516 12.5023 72.8516 11.0641V8.84272Z" fill="black"/>
<path d="M83.4557 13.3495C83.4557 13.9049 83.4768 14.3463 83.5191 14.6738C83.5754 14.9871 83.681 15.2291 83.8359 15.4C83.9908 15.5709 84.2161 15.6848 84.5119 15.7417C84.8076 15.7845 85.202 15.8058 85.6949 15.8058V16.6602H78.6393V15.8058C79.0618 15.7773 79.3998 15.7346 79.6533 15.6777C79.9068 15.6207 80.0969 15.5068 80.2236 15.3359C80.3504 15.165 80.4278 14.923 80.456 14.6097C80.4983 14.2822 80.5194 13.8479 80.5194 13.3068V10.701C80.5194 9.81812 80.4983 9.11327 80.456 8.58641C80.4138 8.05955 80.3222 7.65372 80.1814 7.36893C80.0406 7.08414 79.8364 6.89903 79.5688 6.81359C79.3153 6.71392 78.9773 6.66408 78.5548 6.66408V5.9165L82.7797 5.12621L83.1177 7.58252H83.2022C83.5824 6.82783 84.0824 6.22977 84.702 5.78835C85.3217 5.34693 85.9765 5.12621 86.6666 5.12621C87.2017 5.12621 87.6383 5.26149 87.9763 5.53204C88.3143 5.80259 88.4833 6.14434 88.4833 6.55728C88.4833 7.01295 88.3495 7.39741 88.0819 7.71068C87.8284 8.02395 87.4763 8.18058 87.0257 8.18058C86.8144 8.18058 86.6243 8.13786 86.4553 8.05243C86.2863 7.96699 86.1314 7.87443 85.9906 7.77476C85.8638 7.66084 85.7301 7.56117 85.5892 7.47573C85.4625 7.37605 85.3287 7.32621 85.1879 7.32621C84.9203 7.32621 84.6668 7.50421 84.4274 7.86019C84.188 8.21618 83.9908 8.6932 83.8359 9.29126C83.7233 9.71845 83.6317 10.2026 83.5613 10.7437C83.4909 11.2706 83.4557 11.7974 83.4557 12.3243V13.3495Z" fill="black"/>
<path d="M99.8099 14.6738C98.5283 16.1405 96.9299 16.8738 95.0146 16.8738C94.1415 16.8738 93.3458 16.7385 92.6276 16.468C91.9235 16.1832 91.3179 15.7916 90.8109 15.2932C90.3039 14.7806 89.9096 14.1754 89.6279 13.4777C89.3463 12.7799 89.2055 12.0039 89.2055 11.1495C89.2055 10.2667 89.3533 9.46214 89.6491 8.73592C89.9448 7.99547 90.3603 7.36181 90.8954 6.83495C91.4446 6.29385 92.0854 5.87379 92.8177 5.57476C93.5641 5.27573 94.3809 5.12621 95.2681 5.12621C96.7609 5.12621 97.9228 5.53204 98.7537 6.34369C99.5845 7.15534 100 8.2945 100 9.76117C100 9.989 99.9648 10.1314 99.8944 10.1884C99.824 10.2311 99.6268 10.2524 99.3029 10.2524H92.5009C92.4445 10.3806 92.4164 10.6155 92.4164 10.9573C92.4164 12.3528 92.7121 13.4563 93.3036 14.268C93.9091 15.0796 94.726 15.4854 95.754 15.4854C96.3455 15.4854 96.9299 15.3502 97.5073 15.0796C98.0988 14.8091 98.6692 14.4246 99.2184 13.9262L99.8099 14.6738ZM95.7118 9.05631C96.2751 9.05631 96.6342 9.02783 96.7891 8.97087C96.9581 8.89968 97.0426 8.74304 97.0426 8.50097C97.0426 7.87443 96.8666 7.36181 96.5145 6.96311C96.1624 6.5644 95.7188 6.36505 95.1836 6.36505C94.5781 6.36505 94.0359 6.62136 93.5571 7.13398C93.0923 7.63236 92.7896 8.27314 92.6487 9.05631H95.7118Z" fill="black"/>
</svg>
